<?xml version="1.0" encoding="UTF-8"?>
<svg width="12px" height="10px" viewBox="0 0 12 10" version="1.1" xmlns="http://www.w3.org/2000/svg" xmlns:xlink="http://www.w3.org/1999/xlink">
    <g id="Page-1" stroke="none" stroke-width="1" fill="none" fill-rule="evenodd">
        <g id="BPO-Copy-9" transform="translate(-226.000000, -2966.000000)" fill="#444" fill-rule="nonzero">
            <g id="Group-2" transform="translate(200.000000, 2902.000000)">
                <g id="Shape" transform="translate(26.000000, 64.000000)">
                    <path d="M11.4759641,0.0765960566 C10.9344637,-0.198469771 10.3304824,0.332014325 9.97642447,0.64637527 C9.16420785,1.39298252 8.47691884,2.25747511 7.70628803,3.04337748 C6.8523835,3.90787008 6.06095979,4.77236268 5.18622831,5.61723982 C4.68638176,6.08878124 4.14488132,6.59961778 3.81165029,7.18904455 C3.06188045,6.50134788 2.41624532,5.75474063 1.58316773,5.1456984 C0.979186472,4.7134521 -0.0205066392,4.39909116 0.000320300624,5.44041179 C0.0419741803,6.79612547 1.31241751,8.25004484 2.2496298,9.17344801 C2.64534166,9.5663992 3.16601515,9.97899794 3.76999641,9.9986455 C4.4989393,10.0379406 5.24870913,9.21274313 5.68607487,8.76084927 C6.45670567,7.97494691 7.08151387,7.09077465 7.78959579,6.28525683 C8.70598114,5.22428864 9.64319344,4.1829359 10.5387518,3.10232016 C11.1010792,2.43430315 12.8713691,0.78387608 11.4759641,0.0765960566 Z M0.916671622,5.36323284 C0.895844682,5.36323284 0.875017742,5.36323284 0.833363862,5.3832004 C0.750056103,5.36323284 0.687575284,5.34319992 0.604267524,5.30319943 L0.604267524,5.30319943 C0.666748344,5.26319895 0.770883043,5.2832004 0.916671622,5.36323284 Z"></path>
                </g>
            </g>
        </g>
    </g>
</svg>